<?xml version="1.0" encoding="UTF-8" standalone="no"?>
<!-- Created with Inkscape (http://www.inkscape.org/) -->

<svg
   version="1.1"
   id="svg1"
   width="3580.1582"
   height="1595.4628"
   viewBox="0 0 3580.1582 1595.4628"
   sodipodi:docname="vsc2.svg"
   inkscape:version="1.4 (e7c3feb100, 2024-10-09)"
   inkscape:export-filename="vsc.png"
   inkscape:export-xdpi="16.414265"
   inkscape:export-ydpi="16.414265"
   xmlns:inkscape="http://www.inkscape.org/namespaces/inkscape"
   xmlns:sodipodi="http://sodipodi.sourceforge.net/DTD/sodipodi-0.dtd"
   xmlns="http://www.w3.org/2000/svg"
   xmlns:svg="http://www.w3.org/2000/svg">
  <defs
     id="defs1" />
  <sodipodi:namedview
     id="namedview1"
     pagecolor="#ffffff"
     bordercolor="#000000"
     borderopacity="0.25"
     inkscape:showpageshadow="2"
     inkscape:pageopacity="0.0"
     inkscape:pagecheckerboard="0"
     inkscape:deskcolor="#d1d1d1"
     inkscape:zoom="0.11589366"
     inkscape:cx="392.60129"
     inkscape:cy="1337.433"
     inkscape:window-width="1920"
     inkscape:window-height="942"
     inkscape:window-x="0"
     inkscape:window-y="0"
     inkscape:window-maximized="1"
     inkscape:current-layer="g1" />
  <g
     inkscape:groupmode="layer"
     inkscape:label="Image"
     id="g1"
     transform="translate(-726.33862,2219.7698)">
    <path
       style="fill:none;stroke:#000000;stroke-width:80;stroke-dasharray:none"
       d="m 726.42024,-2085.7385 264.28503,0.5393 m 512.51263,0 h 403.7026 v 512.3231 m 0,399.0727 v 509.49637 H 727.8755"
       id="path1"
       sodipodi:nodetypes="cccccccc" />
    <path
       style="fill:none;stroke:#000000;stroke-width:80;stroke-dasharray:none"
       d="M 3814.9195,-664.30703 H 2521.895 v -509.49637 m 0,-399.0727 v -512.3231 h 304.6981 m 497.2594,0 h 493.0377"
       id="path2"
       sodipodi:nodetypes="cccccccc" />
    <path
       style="fill:none;stroke:#000000;stroke-width:80;stroke-dasharray:none"
       d="m 3466.8402,-664.30703 v -486.55847 m -1.144,-497.2594 v -437.0743"
       id="path3"
       sodipodi:nodetypes="cccc" />
    <circle
       style="fill:none;stroke:#000000;stroke-width:80;stroke-dasharray:none"
       id="path4"
       cx="1906.9205"
       cy="-1373.3397"
       r="199.53636" />
    <circle
       style="fill:none;stroke:#000000;stroke-width:80;stroke-dasharray:none"
       id="circle4"
       cx="2521.895"
       cy="-1373.3397"
       r="199.53636" />
    <rect
       style="fill:none;stroke:#000000;stroke-width:80;stroke-dasharray:none"
       id="rect1"
       width="497.2594"
       height="189.14116"
       x="1005.9585"
       y="-2179.7698" />
    <rect
       style="fill:none;stroke:#000000;stroke-width:80;stroke-dasharray:none"
       id="rect2"
       width="497.2594"
       height="189.14116"
       x="2826.593"
       y="-2179.7698" />
    <rect
       style="fill:none;stroke:#000000;stroke-width:80;stroke-dasharray:none"
       id="rect3"
       width="497.2594"
       height="189.14116"
       x="1150.8655"
       y="3371.1255"
       transform="rotate(-90)" />
    <path
       style="font-weight:bold;font-size:432.727px;font-family:'Noto Sans';-inkscape-font-specification:'Noto Sans, Bold';stroke-width:2884.85"
       d="m 1209.9298,-1226.8976 -22.5018,-73.5636 h -112.509 l -22.5018,73.5636 h -70.53451 l 109.04721,-310.2652 h 80.0545 l 109.4799,310.2652 z m -60.5818,-200.3526 q -2.1636,-7.3563 -5.6254,-18.6072 -3.4618,-11.2509 -6.9236,-22.9346 -3.4619,-11.6836 -5.6255,-20.3381 -2.1636,8.6545 -6.0582,21.6363 -3.4618,12.5491 -6.9236,24.2327 -3.0291,11.2509 -4.76,16.0109 l -22.0691,71.8327 h 80.4872 z m 292.5235,-58.4181 q -37.6472,0 -57.5527,28.1272 -19.9054,28.1273 -19.9054,77.0254 0,49.3309 18.1745,76.5927 18.6073,26.8291 59.2836,26.8291 19.04,0 37.6473,-4.3273 19.04,-4.3273 41.109,-12.1163 v 54.9563 q -20.3381,8.2218 -40.2436,12.1163 -19.9054,3.8946 -44.5709,3.8946 -47.5999,0 -78.7563,-19.4727 -30.7236,-19.9055 -45.4363,-55.3891 -14.7127,-35.9163 -14.7127,-83.5163 0,-46.7345 16.8763,-82.6508 16.8764,-35.9164 48.8982,-56.2546 32.4545,-20.3381 79.189,-20.3381 22.9346,0 45.8691,6.0582 23.3672,5.6254 44.5709,15.5781 l -21.2037,53.2254 q -17.309,-8.2218 -35.0508,-14.2799 -17.3091,-6.0582 -34.1855,-6.0582 z"
       id="text1"
       aria-label="AC" />
    <path
       style="font-weight:bold;font-size:432.727px;font-family:'Noto Sans';-inkscape-font-specification:'Noto Sans, Bold';stroke-width:2884.85"
       d="m 4020.8972,-1384.4102 q 0,78.3236 -44.5709,118.1345 -44.1382,39.3781 -124.1927,39.3781 h -87.4108 v -308.9671 h 96.9308 q 48.4654,0 83.9491,17.3091 35.9163,17.3091 55.389,51.0618 19.9055,33.32 19.9055,83.0836 z m -67.9382,1.7309 q 0,-51.4945 -22.5018,-75.2945 -22.5018,-24.2327 -65.3418,-24.2327 h -35.0509 v 201.218 h 28.1273 q 94.7672,0 94.7672,-101.6908 z m 263.0979,-102.989 q -37.6472,0 -57.5527,28.1272 -19.9054,28.1273 -19.9054,77.0254 0,49.3309 18.1745,76.5927 18.6073,26.8291 59.2836,26.8291 19.04,0 37.6473,-4.3273 19.04,-4.3273 41.109,-12.1163 v 54.9563 q -20.3381,8.2218 -40.2436,12.1163 -19.9054,3.8946 -44.5709,3.8946 -47.5999,0 -78.7563,-19.4727 -30.7236,-19.9055 -45.4363,-55.3891 -14.7127,-35.9163 -14.7127,-83.5163 0,-46.7345 16.8763,-82.6508 16.8764,-35.9164 48.8982,-56.2546 32.4545,-20.3381 79.189,-20.3381 22.9345,0 45.8691,6.0582 23.3672,5.6254 44.5709,15.5781 l -21.2037,53.2254 q -17.309,-8.2218 -35.0509,-14.2799 -17.309,-6.0582 -34.1854,-6.0582 z"
       id="text2"
       aria-label="DC" />
  </g>
</svg>
